<?xml version="1.0" encoding="utf-8"?>
<!-- Generator: Adobe Illustrator 25.2.0, SVG Export Plug-In . SVG Version: 6.00 Build 0)  -->
<svg version="1.1" id="Layer_1" xmlns="http://www.w3.org/2000/svg" xmlns:xlink="http://www.w3.org/1999/xlink" x="0px" y="0px"
	 viewBox="0 0 2500 1063.6" style="enable-background:new 0 0 2500 1063.6;" xml:space="preserve">
<style type="text/css">
	.st0{fill:#FFFFFF;}
</style>
<path class="st0" d="M394,255.2c0-71-57.1-128.2-127-128.2h-63v255.2h63C336.8,382.2,394,325,394,255.2 M680.4,764H449.2
	L265.7,509.3H204v254.1H0.3V0h291.8c168.2,0,305.5,114.4,305.5,255.2c0,85.8-52.6,162.5-132.8,209.4L680.4,764"/>
<path class="st0" d="M910.1,301c-53.8,0-99.6,73.1-99.6,163.6s45.8,163.7,99.6,163.7c55,0,100.7-73.2,100.7-163.7
	C1010.8,374.1,965.2,301,910.1,301 M1223.7,464.6c0,172.9-140.6,311.4-313.5,311.4c-172.9,0-312.5-138.5-312.5-311.4
	c0-172.8,139.6-311.3,312.5-311.3C1083,153.3,1223.7,291.8,1223.7,464.6 M1701.7,165.9L1467,400.6V165.2h-203.7v598.3H1467V520.7
	l245,242.7h256.3l-311.3-311.4l257.9-257.8v355c0,117.9,70.9,226.7,249.4,226.7c84.7,0,162.5-48.1,200.3-91.6l91.6,79h43.5V165.9
	H2296v386.8c-22.9,40-54.9,65.2-104.3,65.2c-50.1,0-73.1-29.7-73.1-124.7V165.9H1701.7L1701.7,165.9z"/>
<g>
	<g>
		<path class="st0" d="M1.9,797.8h21.8v263.2H1.9V797.8z M17,797.8h123.4V822H17V797.8z M17,920.5h106.7v24.3H17V920.5z"/>
		<path class="st0" d="M333.5,1011.5c0,8,1.6,14.1,4.9,18.6c3.3,4.4,7.8,6.6,13.7,6.6h14.5v24.3h-18.2c-11.7,0-20.8-4.3-27.2-13
			c-6.4-8.7-9.6-20.9-9.6-36.7V797.8h21.8V1011.5z"/>
		<path class="st0" d="M548.5,1048.4c-10.1-10.1-15.1-24.4-15.1-42.9c0-17.7,4.6-31.5,13.9-41.2c9.2-9.7,22.3-14.6,39.1-14.6h52.2
			l2.1,24.3h-54.2c-10.1,0-17.9,2.7-23.4,8.2c-5.5,5.5-8.2,13.2-8.2,23.3c0,10.6,3.5,18.9,10.4,24.7c6.9,5.9,16.7,8.8,29.3,8.8
			c13.5,0,24-1.6,31.5-4.9c7.5-3.3,11.2-7.8,11.2-13.8l3.2,24.6c-3.1,3.9-7.1,7.2-12,10c-4.9,2.8-10.5,5-16.8,6.4
			c-6.3,1.4-13.1,2.2-20.4,2.2C572.8,1063.6,558.6,1058.6,548.5,1048.4z M637.2,941.8c0-15.2-3.4-27-10.2-35.4
			c-6.8-8.4-16.5-12.6-29-12.6c-7.5,0-14.8,1.4-21.9,4.3c-7.2,2.9-13.5,7-19.1,12.3l-15.9-13c6-8.6,13.8-15.2,23.5-20
			c9.7-4.8,20.6-7.1,32.5-7.1c13,0,24.2,2.7,33.5,8.2c9.3,5.5,16.3,13.5,21.2,23.9c4.8,10.4,7.3,23,7.3,37.7v120.7h-21.8V941.8z"/>
		<path class="st0" d="M874.8,1060.6c-8-2-15.4-4.9-22.3-8.8c-6.9-3.9-13-8.5-18.4-13.9l12.6-18.3c8.6,6.9,17.5,12.2,26.6,16
			c9.2,3.8,17.9,5.7,26.2,5.7c15,0,26.7-3.1,34.9-9.2c8.2-6.2,12.3-14.8,12.3-26.1c0-8.2-2-14.4-6-18.5c-4-4.1-9-6.9-15.1-8.3
			c-6.1-1.4-14.5-2.7-25.3-3.6c-1-0.1-2-0.2-3.1-0.3c-1.1-0.1-2.1-0.1-3.1-0.3c-0.4,0-0.8,0-1.2-0.1c-0.4-0.1-0.8-0.1-1.2-0.1
			c-10.4-1.2-19.1-3-26-5.4c-7-2.4-12.8-6.9-17.5-13.6c-4.7-6.6-7-16.2-7-28.8c0-12.1,2.4-22.3,7.3-30.8
			c4.9-8.4,12.1-14.9,21.5-19.4c9.4-4.5,20.8-6.7,34-6.7c6.9,0,13.7,0.8,20.6,2.4c6.9,1.6,13.4,4,19.8,7.1
			c6.3,3.1,12.1,6.8,17.3,11.1l-12.6,17.9c-7.5-5.2-15.2-9.2-23.3-12c-8.1-2.8-15.6-4.3-22.7-4.3c-13.2,0-23.5,3-30.7,8.9
			c-7.3,5.9-10.9,14.2-10.9,25c0,7.5,2,13.1,5.9,16.7c3.9,3.7,8.9,6.1,14.9,7.3c6,1.2,14.3,2.2,24.7,2.9c0.4,0,0.8,0,1.3,0.1
			c0.5,0.1,0.9,0.1,1.3,0.1c0.3,0,0.6,0,0.9,0s0.6,0.1,0.9,0.2c11,0.7,20.4,2.4,28.1,4.9c7.7,2.5,14.2,7.5,19.5,15
			c5.2,7.5,7.9,18.3,7.9,32.4c0,12.2-2.6,22.6-7.9,31.1c-5.2,8.6-12.9,15.1-23,19.6c-10.1,4.5-22.3,6.8-36.5,6.8
			C891,1063.6,882.8,1062.6,874.8,1060.6z"/>
		<path class="st0" d="M1145.7,797.8h21.8v263.2h-21.8V797.8z M1250.1,947.1c0-16.7-3.7-29.6-11-38.7c-7.3-9.2-17.6-13.8-31-13.8
			c-12.9,0-22.9,4.1-30,12.2s-10.7,19.7-10.7,34.7l-3.2-36.2c5.5-12.3,12.9-21.2,22.1-26.7c9.2-5.5,19.8-8.2,31.9-8.2
			c17.1,0,30.2,6.7,39.6,20c9.3,13.3,14,32.2,14,56.6v114h-21.8V947.1z"/>
		<path class="st0" d="M1458.4,797.8h21.8v263.2h-21.8V797.8z M1496.8,1056.1c-8.6-5-14.8-13.2-18.8-24.7l2.1-39.3
			c0,8.2,1.6,16.1,4.8,23.6c3.2,7.5,7.9,13.7,13.9,18.4s13.1,7.1,21.2,7.1c13.1,0,23.3-4.7,30.4-14c7.2-9.3,10.7-22.5,10.7-39.4
			v-40.7c0-17.3-3.6-30.6-10.7-40.1c-7.2-9.5-17.3-14.2-30.4-14.2c-8.1,0-15.1,2.3-21.2,7c-6.1,4.6-10.7,10.7-13.9,18
			c-3.2,7.4-4.8,15.1-4.8,23.2l-3.2-36.2c5.4-12.2,12.7-21,21.7-26.3c9-5.4,19.5-8.1,31.6-8.1c11.1,0,20.6,3,28.5,9
			c7.9,6,13.9,14.7,18.1,26.2c4.1,11.5,6.2,25.3,6.2,41.4v40.9c0,15.9-2.1,29.6-6.4,40.9c-4.2,11.3-10.4,20-18.6,26s-18,9-29.4,9
			C1516,1063.6,1505.4,1061.1,1496.8,1056.1z"/>
		<path class="st0" d="M1774.1,1048.4c-10.1-10.1-15.1-24.4-15.1-42.9c0-17.7,4.6-31.5,13.9-41.2c9.2-9.7,22.3-14.6,39.1-14.6h52.2
			l2.1,24.3h-54.2c-10.1,0-17.9,2.7-23.4,8.2c-5.5,5.5-8.2,13.2-8.2,23.3c0,10.6,3.5,18.9,10.4,24.7c6.9,5.9,16.7,8.8,29.3,8.8
			c13.5,0,24-1.6,31.5-4.9c7.5-3.3,11.2-7.8,11.2-13.8l3.2,24.6c-3.1,3.9-7.1,7.2-12,10c-4.9,2.8-10.5,5-16.8,6.4
			c-6.3,1.4-13.1,2.2-20.4,2.2C1798.4,1063.6,1784.1,1058.6,1774.1,1048.4z M1862.8,941.8c0-15.2-3.4-27-10.2-35.4
			c-6.8-8.4-16.5-12.6-29-12.6c-7.5,0-14.8,1.4-21.9,4.3c-7.2,2.9-13.5,7-19.1,12.3l-15.9-13c6-8.6,13.8-15.2,23.5-20
			c9.7-4.8,20.6-7.1,32.5-7.1c13,0,24.2,2.7,33.5,8.2c9.3,5.5,16.3,13.5,21.2,23.9c4.8,10.4,7.3,23,7.3,37.7v120.7h-21.8V941.8z"/>
		<path class="st0" d="M2096.6,1054.6c-10.1-6-17.6-15.1-22.6-27.1c-5-12.1-7.5-27.2-7.5-45.4v-31c0-18,2.5-32.9,7.6-44.9
			c5-11.9,12.6-20.9,22.6-26.9c10-6,22.6-9,37.8-9c8.6,0,16.4,1.1,23.5,3.3c7.1,2.2,13.4,5.6,18.9,10c5.5,4.4,10.4,10,14.5,16.7
			l-16.2,17.2c-5.3-7.7-11.4-13.5-18.1-17.3c-6.7-3.8-14.1-5.7-22.2-5.7c-15.6,0-27.3,4.7-35,14c-7.7,9.4-11.6,23.5-11.6,42.4v31
			c0,19.2,3.9,33.5,11.7,43.1c7.8,9.5,19.4,14.3,35,14.3c8.6,0,16.4-1.8,23.4-5.4c7-3.6,13.3-9.1,19-16.5l14.1,16.7
			c-4.1,6.6-9,12.1-14.5,16.5c-5.6,4.3-11.9,7.6-18.9,9.8c-7.1,2.2-14.9,3.3-23.5,3.3C2119.3,1063.6,2106.7,1060.6,2096.6,1054.6z"
			/>
		<path class="st0" d="M2364.9,797.8h21.8v263.2h-21.8V797.8z M2380.5,996.8l89.2-123.8h25.7l-119.1,160.4L2380.5,996.8z
			 M2425,959.2l12.7-24.6l65.4,126.3h-26.5L2425,959.2z"/>
	</g>
</g>
</svg>
